name Walk8.mot
datacolumns 19
datarows 15
range 3.95400000 3.96800000
endheader

                time	   L_ground_force_vx	   L_ground_force_vy	   L_ground_force_vz	   L_ground_force_px	   L_ground_force_py	   L_ground_force_pz	   R_ground_force_vx	   R_ground_force_vy	   R_ground_force_vz	   R_ground_force_px	   R_ground_force_py	   R_ground_force_pz	   L_ground_torque_x	   L_ground_torque_y	   L_ground_torque_z	   R_ground_torque_x	   R_ground_torque_y	   R_ground_torque_z	
          3.95400000	          0.00000000	          0.00000000	          0.00000000	          0.00000000	          0.00000000	         -0.00000000	         17.41093299	         55.39010977	          2.72877869	          0.38277911	          0.00000000	          0.09335027	          0.00000000	          0.00000000	          0.00000000	          0.00000000	         -3.27415037	          0.00000000	
          3.95500000	          0.00000000	          0.00000000	          0.00000000	          0.00000000	          0.00000000	         -0.00000000	         16.33572052	         51.44149928	          2.79667897	          0.37295024	          0.00000000	          0.09100697	          0.00000000	          0.00000000	          0.00000000	          0.00000000	         -3.06747400	          0.00000000	
          3.95600000	          0.00000000	          0.00000000	          0.00000000	          0.00000000	          0.00000000	         -0.00000000	         15.29194993	         47.64719407	          2.84963333	          0.36282367	          0.00000000	          0.08859041	          0.00000000	          0.00000000	          0.00000000	          0.00000000	         -2.86704274	          0.00000000	
          3.95700000	          0.00000000	          0.00000000	          0.00000000	          0.00000000	          0.00000000	         -0.00000000	         14.28045173	         44.00567649	          2.88843291	          0.35241544	          0.00000000	          0.08610405	          0.00000000	          0.00000000	          0.00000000	          0.00000000	         -2.67301053	          0.00000000	
          3.95800000	          0.00000000	          0.00000000	          0.00000000	          0.00000000	          0.00000000	         -0.00000000	         13.30194316	         40.51531760	          2.91388319	          0.34174432	          0.00000000	          0.08355197	          0.00000000	          0.00000000	          0.00000000	          0.00000000	         -2.48550877	          0.00000000	
          3.95900000	          0.00000000	          0.00000000	          0.00000000	          0.00000000	          0.00000000	         -0.00000000	         12.35702783	         37.17439067	          2.92680174	          0.33083209	          0.00000000	          0.08093890	          0.00000000	          0.00000000	          0.00000000	          0.00000000	         -2.30464612	          0.00000000	
          3.96000000	          0.00000000	          0.00000000	          0.00000000	          0.00000000	          0.00000000	         -0.00000000	         11.44619580	         33.98108430	          2.92801611	          0.31970366	          0.00000000	          0.07827035	          0.00000000	          0.00000000	          0.00000000	          0.00000000	         -2.13050836	          0.00000000	
          3.96100000	          0.00000000	          0.00000000	          0.00000000	          0.00000000	          0.00000000	         -0.00000000	         10.56982363	         30.93351416	          2.91836150	          0.30838732	          0.00000000	          0.07555266	          0.00000000	          0.00000000	          0.00000000	          0.00000000	         -1.96315826	          0.00000000	
          3.96200000	          0.00000000	          0.00000000	          0.00000000	          0.00000000	          0.00000000	         -0.00000000	          9.72817463	         28.02973088	          2.89867787	          0.29691487	          0.00000000	          0.07279314	          0.00000000	          0.00000000	          0.00000000	          0.00000000	         -1.80263560	          0.00000000	
          3.96300000	          0.00000000	          0.00000000	          0.00000000	          0.00000000	          0.00000000	         -0.00000000	          8.92139932	         25.26772014	          2.86980592	          0.28532188	          0.00000000	          0.07000015	          0.00000000	          0.00000000	          0.00000000	          0.00000000	         -1.64895712	          0.00000000	
          3.96400000	          0.00000000	          0.00000000	         -0.00000000	          0.00000000	          0.00000000	         -0.00000000	          8.14953623	         22.64539090	          2.83258185	          0.27364778	          0.00000000	          0.06718318	          0.00000000	          0.00000000	          0.00000000	          0.00000000	         -1.50211674	          0.00000000	
          3.96500000	          0.00000000	          0.00000000	         -0.00000000	          0.00000000	          0.00000000	         -0.00000000	          7.41251267	         20.16054154	          2.78782948	          0.26193559	          0.00000000	          0.06435275	          0.00000000	          0.00000000	          0.00000000	          0.00000000	         -1.36208587	          0.00000000	
          3.96600000	          0.00000000	          0.00000000	         -0.00000000	          0.00000000	          0.00000000	         -0.00000000	          6.71014479	         17.81079480	          2.73634901	          0.25022991	          0.00000000	          0.06151994	          0.00000000	          0.00000000	          0.00000000	          0.00000000	         -1.22881408	          0.00000000	
          3.96700000	          0.00000000	          0.00000000	         -0.00000000	         -0.00000000	          0.00000000	         -0.00000000	          6.04213908	         15.59353046	          2.67890561	          0.23857394	          0.00000000	          0.05869551	          0.00000000	          0.00000000	          0.00000000	          0.00000000	         -1.10223022	          0.00000000	
          3.96800000	          0.00000000	          0.00000000	         -0.00000000	         -0.00000000	          0.00000000	          0.00000000	          5.40809816	         13.50586285	          2.61622332	          0.22700749	          0.00000000	          0.05588943	          0.00000000	          0.00000000	          0.00000000	          0.00000000	         -0.98224397	          0.00000000	
